<mxfile host="65bd71144e">
    <diagram id="1wDEzimC1mVASfkiNfk8" name="JEditor__propPanel">
        <mxGraphModel dx="1672" dy="2031" grid="1" gridSize="10" guides="1" tooltips="1" connect="1" arrows="1" fold="1" page="1" pageScale="1" pageWidth="827" pageHeight="1169" math="0" shadow="0">
            <root>
                <mxCell id="0"/>
                <mxCell id="1" parent="0"/>
                <mxCell id="22" value="" style="group;movable=0;resizable=0;rotatable=0;deletable=0;editable=0;connectable=0;" parent="1" vertex="1" connectable="0">
                    <mxGeometry x="-130" y="-70" width="890" height="375" as="geometry"/>
                </mxCell>
                <mxCell id="23" value="" style="group" parent="22" vertex="1" connectable="0">
                    <mxGeometry x="640" y="25" width="250" height="350" as="geometry"/>
                </mxCell>
                <mxCell id="24" value="" style="rounded=1;whiteSpace=wrap;html=1;" parent="23" vertex="1">
                    <mxGeometry y="40" width="250" height="310" as="geometry"/>
                </mxCell>
                <mxCell id="25" value="Plugins" style="text;html=1;strokeColor=none;fillColor=none;align=center;verticalAlign=middle;whiteSpace=wrap;rounded=0;fontStyle=1;fontSize=21;" parent="23" vertex="1">
                    <mxGeometry x="88.23529411764709" y="-15" width="88.23529411764709" height="50.00000000000001" as="geometry"/>
                </mxCell>
                <mxCell id="26" value="&lt;font color=&quot;#050505&quot;&gt;Whiteboard&lt;/font&gt;" style="rounded=1;whiteSpace=wrap;html=1;fillColor=#eeeeee;strokeColor=#36393d;" parent="23" vertex="1">
                    <mxGeometry x="44.11764705882354" y="70.00000000000001" width="176.47058823529417" height="83.33333333333334" as="geometry"/>
                </mxCell>
                <mxCell id="27" value="extension: Text&lt;br&gt;&lt;br&gt;&lt;br&gt;PropPanel: VNode[]" style="rounded=1;whiteSpace=wrap;html=1;fillColor=#f0a30a;fontColor=#000000;strokeColor=#BD7000;" parent="23" vertex="1">
                    <mxGeometry x="50" y="170" width="170" height="170" as="geometry"/>
                </mxCell>
                <mxCell id="30" value="" style="group;fillColor=#1ba1e2;fontColor=#ffffff;strokeColor=#006EAF;" parent="22" vertex="1" connectable="0">
                    <mxGeometry y="40" width="550" height="320" as="geometry"/>
                </mxCell>
                <mxCell id="31" value="" style="whiteSpace=wrap;html=1;" parent="30" vertex="1">
                    <mxGeometry width="550" height="320" as="geometry"/>
                </mxCell>
                <mxCell id="32" value="" style="edgeStyle=none;orthogonalLoop=1;jettySize=auto;html=1;shape=link;width=-4.4;" parent="30" target="31" edge="1">
                    <mxGeometry width="80" relative="1" as="geometry">
                        <mxPoint y="40" as="sourcePoint"/>
                        <mxPoint x="80" y="40" as="targetPoint"/>
                        <Array as="points">
                            <mxPoint x="550" y="40"/>
                        </Array>
                    </mxGeometry>
                </mxCell>
                <mxCell id="33" value="" style="edgeStyle=none;orthogonalLoop=1;jettySize=auto;html=1;shape=link;width=6.800000000000001;entryX=0.781;entryY=1.009;entryDx=0;entryDy=0;entryPerimeter=0;" parent="30" target="31" edge="1">
                    <mxGeometry width="80" relative="1" as="geometry">
                        <mxPoint x="430" y="40" as="sourcePoint"/>
                        <mxPoint x="490" y="220" as="targetPoint"/>
                        <Array as="points"/>
                    </mxGeometry>
                </mxCell>
                <mxCell id="34" value="" style="edgeStyle=none;orthogonalLoop=1;jettySize=auto;html=1;shape=link;width=6.800000000000001;entryX=0.781;entryY=1.009;entryDx=0;entryDy=0;entryPerimeter=0;" parent="30" edge="1">
                    <mxGeometry width="80" relative="1" as="geometry">
                        <mxPoint x="120.44999999999999" y="37.12" as="sourcePoint"/>
                        <mxPoint x="119.99999999999994" y="319.9999999999999" as="targetPoint"/>
                        <Array as="points"/>
                    </mxGeometry>
                </mxCell>
                <mxCell id="35" value="" style="whiteSpace=wrap;html=1;fillColor=#eeeeee;strokeColor=#36393d;" parent="30" vertex="1">
                    <mxGeometry x="150" y="70" width="250" height="230" as="geometry"/>
                </mxCell>
                <mxCell id="36" value="&lt;font color=&quot;#0a0a0a&quot;&gt;Whiteboard&lt;/font&gt;" style="text;strokeColor=none;align=center;fillColor=none;html=1;verticalAlign=middle;whiteSpace=wrap;rounded=0;" parent="30" vertex="1">
                    <mxGeometry x="220" y="80" width="60" height="30" as="geometry"/>
                </mxCell>
                <mxCell id="37" value="Text.view" style="rounded=1;whiteSpace=wrap;html=1;fillColor=#1ba1e2;fontColor=#ffffff;strokeColor=#006EAF;" parent="30" vertex="1">
                    <mxGeometry x="180" y="152.85" width="170" height="37.15" as="geometry"/>
                </mxCell>
                <mxCell id="38" value="Text.trigger" style="rounded=1;whiteSpace=wrap;html=1;fillColor=#f0a30a;fontColor=#000000;strokeColor=#BD7000;" parent="30" vertex="1">
                    <mxGeometry x="10" y="70" width="100" height="20" as="geometry"/>
                </mxCell>
                <mxCell id="39" value="Text.propPanel" style="rounded=1;whiteSpace=wrap;html=1;fillColor=#1ba1e2;fontColor=#ffffff;strokeColor=#006EAF;" parent="30" vertex="1">
                    <mxGeometry x="440" y="50" width="100" height="20" as="geometry"/>
                </mxCell>
                <mxCell id="48" value="Render&lt;br&gt;Text.propPanel&lt;br&gt;VNode Array" style="rounded=1;whiteSpace=wrap;html=1;fillColor=#1ba1e2;fontColor=#ffffff;strokeColor=#006EAF;" parent="30" vertex="1">
                    <mxGeometry x="440" y="80" width="100" height="220" as="geometry"/>
                </mxCell>
                <mxCell id="44" value="Kernel" style="text;strokeColor=none;align=center;fillColor=none;html=1;verticalAlign=middle;whiteSpace=wrap;rounded=0;fontStyle=1;fontSize=23;" parent="22" vertex="1">
                    <mxGeometry x="160" width="240" height="30" as="geometry"/>
                </mxCell>
                <mxCell id="47" style="edgeStyle=none;html=1;" parent="22" source="27" target="35" edge="1">
                    <mxGeometry relative="1" as="geometry">
                        <mxPoint x="280" y="360" as="targetPoint"/>
                    </mxGeometry>
                </mxCell>
                <mxCell id="49" value="&lt;font style=&quot;font-size: 14px;&quot;&gt;## 右键菜单 ##&lt;br&gt;1.右键菜单实现需要覆盖宿主环境自身的右键菜单，contextMenu出现的同时元素进入选中状态&lt;br&gt;&lt;br&gt;2. 包含功能：复制、剪切、粘贴、删除、锁定等常规功能&lt;br&gt;&lt;/font&gt;&lt;div style=&quot;&quot;&gt;&lt;/div&gt;" style="text;strokeColor=#36393d;align=left;fillColor=#f9f7ed;html=1;verticalAlign=middle;whiteSpace=wrap;rounded=0;labelBackgroundColor=#f5f4f4;fontSize=21;fontColor=#000000;" parent="1" vertex="1">
                    <mxGeometry x="-30" y="510" width="320" height="135" as="geometry"/>
                </mxCell>
            </root>
        </mxGraphModel>
    </diagram>
</mxfile>